<?xml version="1.0" encoding="UTF-8"?>
<svg xmlns="http://www.w3.org/2000/svg" width="1240" height="330" viewBox="0 0 1240 330">
  <style>
    .title { font: 700 23px Arial, sans-serif; fill: #17395f; }
    .subtitle { font: 400 15px Arial, sans-serif; fill: #53718f; }
    .label { font: 600 15px Arial, sans-serif; fill: #315376; }
    .value { font: 700 15px Arial, sans-serif; fill: #17395f; }
  </style>
  <rect width="1240" height="330" fill="#ffffff"/>
  <text x="20" y="30" class="title">Case 2 — carga alta sustentada — comparação entre cenários</text>
  <g transform="translate(20 45)"><g><rect x="0" y="0" width="390" height="270" rx="18" fill="#f8fbff" stroke="#c9daed" stroke-width="2"/><text x="34" y="48" class="title">Latência média (ms)</text><text x="34" y="74" class="subtitle">Menor valor é melhor</text><text x="34" y="100" class="label">Baseline</text><rect x="34" y="110" width="250" height="16" rx="5" fill="#dce9f6"/><rect x="34" y="110" width="116.59140383344297" height="16" rx="5" fill="#9bbddd"/><text x="300" y="124" class="value" transform="translate(0 0)">24,47 ms</text><text x="34" y="146" class="label">Redis</text><rect x="34" y="156" width="250" height="16" rx="5" fill="#dce9f6"/><rect x="34" y="156" width="139.12368697156012" height="16" rx="5" fill="#3671ad"/><text x="300" y="124" class="value" transform="translate(0 46)">29,20 ms</text><text x="34" y="192" class="label">Solr</text><rect x="34" y="202" width="250" height="16" rx="5" fill="#dce9f6"/><rect x="34" y="202" width="250" height="16" rx="5" fill="#0b416d"/><text x="300" y="124" class="value" transform="translate(0 92)">52,47 ms</text></g></g>
  <g transform="translate(425 45)"><g><rect x="0" y="0" width="390" height="270" rx="18" fill="#f8fbff" stroke="#c9daed" stroke-width="2"/><text x="34" y="48" class="title">Latência p95 (ms)</text><text x="34" y="74" class="subtitle">Menor valor é melhor</text><text x="34" y="100" class="label">Baseline</text><rect x="34" y="110" width="250" height="16" rx="5" fill="#dce9f6"/><rect x="34" y="110" width="119.93133628028993" height="16" rx="5" fill="#9bbddd"/><text x="300" y="124" class="value" transform="translate(0 0)">61,99 ms</text><text x="34" y="146" class="label">Redis</text><rect x="34" y="156" width="250" height="16" rx="5" fill="#dce9f6"/><rect x="34" y="156" width="119.02299371702584" height="16" rx="5" fill="#3671ad"/><text x="300" y="124" class="value" transform="translate(0 46)">61,52 ms</text><text x="34" y="192" class="label">Solr</text><rect x="34" y="202" width="250" height="16" rx="5" fill="#dce9f6"/><rect x="34" y="202" width="250" height="16" rx="5" fill="#0b416d"/><text x="300" y="124" class="value" transform="translate(0 92)">129,21 ms</text></g></g>
  <g transform="translate(830 45)"><g><rect x="0" y="0" width="390" height="270" rx="18" fill="#f8fbff" stroke="#c9daed" stroke-width="2"/><text x="34" y="48" class="title">Vazão (req/s)</text><text x="34" y="74" class="subtitle">Maior valor é melhor</text><text x="34" y="100" class="label">Baseline</text><rect x="34" y="110" width="250" height="16" rx="5" fill="#dce9f6"/><rect x="34" y="110" width="250" height="16" rx="5" fill="#9bbddd"/><text x="300" y="124" class="value" transform="translate(0 0)">569,14 req/s</text><text x="34" y="146" class="label">Redis</text><rect x="34" y="156" width="250" height="16" rx="5" fill="#dce9f6"/><rect x="34" y="156" width="241.64613771226774" height="16" rx="5" fill="#3671ad"/><text x="300" y="124" class="value" transform="translate(0 46)">550,12 req/s</text><text x="34" y="192" class="label">Solr</text><rect x="34" y="202" width="250" height="16" rx="5" fill="#dce9f6"/><rect x="34" y="202" width="203.70144026099675" height="16" rx="5" fill="#0b416d"/><text x="300" y="124" class="value" transform="translate(0 92)">463,74 req/s</text></g></g>
</svg>